<svg viewBox="0 0 50 56">
  <path d="M0,39.4011735 L0,0.899649381 C0,0.404886217 0.4025,0.000125702023 0.89425,0.000125702023 L49.10575,0.000125702023 C49.59775,0.000125702023 50,0.404886217 50,0.899649381 L50,39.4011735 C50,40.3937167 49.32425,40.7605152 49.32425,40.7605152 L25.70725,55.7959856 C25.27375,56.0680048 24.724,56.0680048 24.2905,55.7959856 L0.6835,40.7657947 C0.67825,40.762275 0.675,40.7600124 0.67,40.7564927 C0.60425,40.7064633 0,40.225276 0,39.4011735" fill="#E24301"/>
  <polygon fill="#FFFFFF" points="25 29.5 17.3587917 33.5172209 18.8181326 25.0086105 12.6362653 18.9827791 21.1793959 17.7413895 25 10 28.8206041 17.7413895 37.3637347 18.9827791 31.1818674 25.0086105 32.6412083 33.5172209"/>
</svg>
