<svg viewBox="0 0 1067 471">
  <circle fill="#FCF0C0" cx="823" cy="225" r="225"/>
  <g transform="translate(96.000000, 51.000000)" fill-rule="nonzero">
      <g transform="translate(727.000000, 400.000000) rotate(-180.000000) translate(-727.000000, -400.000000) translate(726.000000, 380.000000)">
          <polygon fill="#FCF0C0" points="0 0 2 0 2 20 0 20"/>
          <polygon fill="#E24301" points="0 20 2 20 2 40 0 40"/>
      </g>
      <g transform="translate(567.000000, 15.000000) scale(-1, -1) rotate(-225.000000) translate(-567.000000, -15.000000) translate(566.000000, -5.000000)">
          <polygon fill="#FCF0C0" points="0 0 2 0 2 20 0 20"/>
          <polygon fill="#E24301" points="0 20 2 20 2 40 0 40"/>
      </g>
      <g transform="translate(931.000000, 173.000000)">
          <polygon fill="#FCF0C0" points="40 0 40 2 20 2 20 0"/>
          <polygon fill="#E24301" points="20 0 20 2 0 2 0 0"/>
      </g>
      <polygon fill="#FCF0C0" points="0 175 4 175 4 205 0 205"/>
      <polygon fill="#FCF0C0" points="272 175 276 175 276 205 272 205"/>
      <polygon fill="#FCF0C0" points="128 145 132 145 132 175 128 175"/>
  </g>
  <path d="M470.092862,99.9129317 L471.655362,96.2307321 C485.400914,102.063502 493.513253,110.031289 497.539171,120.646994 C500.584191,128.676227 501.135879,135.557284 501.029667,151.953618 C501.014889,154.235013 501.009855,155.276816 501.009855,156.562695 L501.009855,331.758728 L497.009855,331.758728 L497.009855,156.562695 C497.009855,155.265355 497.014917,154.217671 497.029751,151.927707 C497.132674,136.039182 496.605656,129.46584 493.799096,122.065386 C490.175459,112.510432 482.869316,105.334476 470.092862,99.9129317 Z" fill="#FCF0C0" fill-rule="nonzero" transform="translate(485.567279, 213.994730) scale(-1, -1) rotate(-90.000000) translate(-485.567279, -213.994730) "></path>
  <path d="M0.2265625,229.777344 L0.2265625,225.777344 L4.2265625,225.777344 L4.2265625,229.777344 L0.2265625,229.777344 Z M8.2265625,229.777344 L8.2265625,225.777344 L12.2265625,225.777344 L12.2265625,229.777344 L8.2265625,229.777344 Z M16.2265625,229.777344 L16.2265625,225.777344 L20.2265625,225.777344 L20.2265625,229.777344 L16.2265625,229.777344 Z M24.2265625,229.777344 L24.2265625,225.777344 L28.2265625,225.777344 L28.2265625,229.777344 L24.2265625,229.777344 Z M32.2265625,229.777344 L32.2265625,225.777344 L36.2265625,225.777344 L36.2265625,229.777344 L32.2265625,229.777344 Z M40.2265625,229.777344 L40.2265625,225.777344 L44.2265625,225.777344 L44.2265625,229.777344 L40.2265625,229.777344 Z M48.2265625,229.777344 L48.2265625,225.777344 L52.2265625,225.777344 L52.2265625,229.777344 L48.2265625,229.777344 Z M56.2265625,229.777344 L56.2265625,225.777344 L60.2265625,225.777344 L60.2265625,229.777344 L56.2265625,229.777344 Z M64.2265625,229.777344 L64.2265625,225.777344 L68.2265625,225.777344 L68.2265625,229.777344 L64.2265625,229.777344 Z M72.2265625,229.777344 L72.2265625,225.777344 L76.2265625,225.777344 L76.2265625,229.777344 L72.2265625,229.777344 Z M80.2265625,229.777344 L80.2265625,225.777344 L84.2265625,225.777344 L84.2265625,229.777344 L80.2265625,229.777344 Z M88.2265625,229.777344 L88.2265625,225.777344 L92.2265625,225.777344 L92.2265625,229.777344 L88.2265625,229.777344 Z M96.2265625,229.777344 L96.2265625,225.777344 L100.226562,225.777344 L100.226562,229.777344 L96.2265625,229.777344 Z M104.226562,229.777344 L104.226562,225.777344 L108.226562,225.777344 L108.226562,229.777344 L104.226562,229.777344 Z M112.226562,229.777344 L112.226562,225.777344 L116.226562,225.777344 L116.226562,229.777344 L112.226562,229.777344 Z M120.226562,229.777344 L120.226562,225.777344 L124.226562,225.777344 L124.226562,229.777344 L120.226562,229.777344 Z M128.226562,229.777344 L128.226562,225.777344 L132.226562,225.777344 L132.226562,229.777344 L128.226562,229.777344 Z M136.226562,229.777344 L136.226562,225.777344 L140.226562,225.777344 L140.226562,229.777344 L136.226562,229.777344 Z M144.226562,229.777344 L144.226562,225.777344 L148.226562,225.777344 L148.226562,229.777344 L144.226562,229.777344 Z M152.226562,229.777344 L152.226562,225.777344 L156.226562,225.777344 L156.226562,229.777344 L152.226562,229.777344 Z M160.226562,229.777344 L160.226562,225.777344 L164.226562,225.777344 L164.226562,229.777344 L160.226562,229.777344 Z M168.226562,229.777344 L168.226562,225.777344 L172.226562,225.777344 L172.226562,229.777344 L168.226562,229.777344 Z M176.226562,229.777344 L176.226562,225.777344 L180.226562,225.777344 L180.226562,229.777344 L176.226562,229.777344 Z M184.226562,229.777344 L184.226562,225.777344 L188.226562,225.777344 L188.226562,229.777344 L184.226562,229.777344 Z M192.226562,229.777344 L192.226562,225.777344 L196.226562,225.777344 L196.226562,229.777344 L192.226562,229.777344 Z M200.226562,229.777344 L200.226562,225.777344 L204.226562,225.777344 L204.226562,229.777344 L200.226562,229.777344 Z M208.226562,229.777344 L208.226562,225.777344 L212.226562,225.777344 L212.226562,229.777344 L208.226562,229.777344 Z M216.226562,229.777344 L216.226562,225.777344 L220.226562,225.777344 L220.226562,229.777344 L216.226562,229.777344 Z M224.226562,229.777344 L224.226562,225.777344 L228.226562,225.777344 L228.226562,229.777344 L224.226562,229.777344 Z M232.226563,229.777344 L232.226563,225.777344 L236.226563,225.777344 L236.226563,229.777344 L232.226563,229.777344 Z M240.226562,229.777344 L240.226562,225.777344 L244.226562,225.777344 L244.226562,229.777344 L240.226562,229.777344 Z M248.226562,229.777344 L248.226562,225.777344 L252.226562,225.777344 L252.226562,229.777344 L248.226562,229.777344 Z M256.226562,229.777344 L256.226562,225.777344 L260.226562,225.777344 L260.226562,229.777344 L256.226562,229.777344 Z M264.226562,229.777344 L264.226562,225.777344 L268.226562,225.777344 L268.226562,229.777344 L264.226562,229.777344 Z M272.226562,229.777344 L272.226562,225.777344 L276.226562,225.777344 L276.226562,229.777344 L272.226562,229.777344 Z M280.226562,229.777344 L280.226562,225.777344 L284.226562,225.777344 L284.226562,229.777344 L280.226562,229.777344 Z M288.226562,229.777344 L288.226562,225.777344 L292.226562,225.777344 L292.226562,229.777344 L288.226562,229.777344 Z M296.226562,229.777344 L296.226562,225.777344 L300.226562,225.777344 L300.226562,229.777344 L296.226562,229.777344 Z M304.226562,229.777344 L304.226562,225.777344 L308.226562,225.777344 L308.226562,229.777344 L304.226562,229.777344 Z M312.226562,229.777344 L312.226562,225.777344 L316.226562,225.777344 L316.226562,229.777344 L312.226562,229.777344 Z M320.226562,229.777344 L320.226562,225.777344 L324.226562,225.777344 L324.226562,229.777344 L320.226562,229.777344 Z M328.226562,229.777344 L328.226562,225.777344 L332.226562,225.777344 L332.226562,229.777344 L328.226562,229.777344 Z M336.226562,229.777344 L336.226562,225.777344 L340.226562,225.777344 L340.226562,229.777344 L336.226562,229.777344 Z M344.226562,229.777344 L344.226562,225.777344 L348.226562,225.777344 L348.226562,229.777344 L344.226562,229.777344 Z M352.226562,229.777344 L352.226562,225.777344 L356.226562,225.777344 L356.226562,229.777344 L352.226562,229.777344 Z M360.226562,229.777344 L360.226562,225.777344 L364.226562,225.777344 L364.226562,229.777344 L360.226562,229.777344 Z" fill="#FCF0C0" fill-rule="nonzero"></path>
</svg>
