<svg viewBox="0 0 370 386">
  <rect fill="#FCF0C0" x="0" y="131" width="370" height="198"></rect>
  <g transform="translate(231.500000, 190.500000) scale(-1, 1) rotate(-360.000000) translate(-231.500000, -190.500000) translate(145.000000, 0.000000)" stroke="#000000" stroke-width="7">
    <path d="M94,379.520833 L172.125,379.520833"/>
    <path d="M94,367.285539 L172.125,367.285539"/>
    <path d="M94,355.050245 L172.125,355.050245"/>
    <path d="M94,342.814951 L172.125,342.814951"/>
    <path d="M94,330.579657 L172.125,330.579657"/>
    <path d="M94,318.344363 L172.125,318.344363"/>
    <path d="M94,306.109069 L172.125,306.109069"/>
    <path d="M94,293.873775 L172.125,293.873775"/>
    <path d="M94,281.63848 L172.125,281.63848"/>
    <path d="M94,269.403186 L172.125,269.403186"/>
    <path d="M94,257.167892 L172.125,257.167892"/>
    <path d="M94,244.932598 L172.125,244.932598"/>
    <path d="M94,232.697304 L172.125,232.697304"/>
    <path d="M94,220.46201 L172.125,220.46201"/>
    <path d="M94,208.226716 L172.125,208.226716"/>
    <path d="M94,195.991422 L172.125,195.991422"/>
    <path d="M94,183.756127 L172.125,183.756127"/>
    <path d="M94,171.520833 L172.125,171.520833"/>
    <path d="M96.5427792,124.632899 L168.457221,155.158768"/>
    <path d="M7.81082369,9.26852751 L66.7725096,60.5231392" transform="translate(37.291667, 34.895833) rotate(21.000000) translate(-37.291667, -34.895833) "/>
    <path d="M52.670308,32.2744747 L107.913025,87.517192"/>
  </g>
  <g transform="translate(292.500000, 242.000000) scale(-1, 1) rotate(-360.000000) translate(-292.500000, -242.000000) translate(242.000000, 103.000000)" stroke="#C0A060" stroke-width="7">
    <path d="M22,276.520833 L100.125,276.520833"/>
    <path d="M22,264.285539 L100.125,264.285539"/>
    <path d="M22,252.050245 L100.125,252.050245"/>
    <path d="M22,239.814951 L100.125,239.814951"/>
    <path d="M22,227.579657 L100.125,227.579657"/>
    <path d="M22,215.344363 L100.125,215.344363"/>
    <path d="M22,203.109069 L100.125,203.109069"/>
    <path d="M22,190.873775 L100.125,190.873775"/>
    <path d="M22,178.63848 L100.125,178.63848"/>
    <path d="M22,166.403186 L100.125,166.403186"/>
    <path d="M22,153.63848 L100.125,153.63848"/>
    <path d="M22,141.403186 L100.125,141.403186"/>
    <path d="M14.5427792,86.6328986 L86.4572208,117.158768"/>
    <path d="M0.728790876,0.856001023 L38.6045425,69.1856656"/>
  </g>
  <g transform="translate(84.500000, 261.500000) scale(-1, 1) rotate(-360.000000) translate(-84.500000, -261.500000) translate(40.000000, 142.000000)" stroke="#E24301" stroke-width="7">
    <path d="M2,237.520833 L80.125,237.520833"/>
    <path d="M2,225.285539 L80.125,225.285539"/>
    <path d="M2,213.050245 L80.125,213.050245"/>
    <path d="M2,200.814951 L80.125,200.814951"/>
    <path d="M2,188.579657 L80.125,188.579657"/>
    <path d="M2,176.344363 L80.125,176.344363"/>
    <path d="M2,164.109069 L80.125,164.109069"/>
    <path d="M2,151.873775 L80.125,151.873775"/>
    <path d="M2,139.63848 L80.125,139.63848"/>
    <path d="M2,127.403186 L80.125,127.403186"/>
    <path d="M12.1551881,95.442357 L88.8448119,110.34931"/>
    <path d="M0.185823689,0.393527513 L59.1475096,51.6481392"/>
  </g>
</svg>
