<svg viewBox="0 0 253 19">
  <path d="M119.741809,7.47348091 C119.7609,6.92557182 119.442082,6.48075364 118.855991,6.48075364 C118.111445,6.48075364 117.175991,7.15275364 116.290173,8.58648091 C115.688809,9.54102636 115.264991,10.6215718 115.264991,11.4539355 C115.264991,12.0190264 115.654445,12.3550264 116.076355,12.3550264 C117.918627,12.3550264 119.741809,8.63993545 119.741809,7.47348091 M114.524264,10.9232082 C114.524264,8.69339 116.202355,5.67129909 118.554355,5.67129909 C119.741809,5.67129909 120.446264,6.53420818 120.446264,7.73884455 C120.446264,9.68229909 118.907536,13.2064809 116.347445,13.2064809 C115.369991,13.2064809 114.524264,12.2672082 114.524264,10.9232082"/>
  <path d="M121.829782,6.80052636 C121.743873,6.80052636 121.711418,6.74707182 121.743873,6.62489 L121.814509,6.32516273 C121.848873,6.19916273 121.883236,6.14570818 122.028327,6.14570818 L123.565145,6.14570818 C124.093964,4.62798091 124.697236,3.15798091 125.6346,2.11370818 C126.129055,1.54861727 127.102691,0.909071818 128.251964,0.909071818 C129.280964,0.909071818 129.844145,1.52761727 129.844145,1.95334455 C129.844145,2.50125364 129.492873,2.76661727 129.139691,2.76661727 C128.570782,2.76661727 128.412327,2.44970818 128.358873,2.06216273 C128.341691,1.88079909 128.166055,1.54861727 127.637236,1.54861727 C125.9916,1.54861727 125.350145,4.16407182 124.769782,6.14570818 L126.484145,6.14570818 C126.592964,6.14570818 126.625418,6.19916273 126.592964,6.35761727 L126.503236,6.67834455 C126.484145,6.78143545 126.449782,6.80052636 126.304691,6.80052636 L124.622782,6.80052636 C124.168418,8.23425364 123.355145,11.2964355 122.469327,13.5587082 C121.388782,16.3211627 120.130691,18.2837082 118.238782,18.2837082 C117.534327,18.2837082 116.967327,17.8026173 116.967327,17.2394355 C116.967327,16.83089 117.267055,16.4777082 117.730964,16.4777082 C118.238782,16.4777082 118.506055,16.9740718 118.559509,17.2737991 C118.593873,17.4494355 118.719873,17.5754355 118.861145,17.5754355 C119.708782,17.5754355 120.663327,16.0863445 121.619782,12.8141627 L123.4086,6.80052636 L121.829782,6.80052636 Z"/>
  <polygon points="16.0245273 1.82734455 16.0245273 18.0756173 12.4029818 18.0756173 12.4029818 10.19489 8.01398182 14.5915264 3.62307273 10.19489 3.62307273 18.0756173 -0.000381818182 18.0756173 -0.000381818182 1.82734455 8.01398182 9.86270818"/>
  <polygon points="20.013 18.0748536 23.6612727 18.0748536 23.6612727 2.00603545 20.013 2.00603545"/>
  <polygon points="41.4093273 18.2577445 31.2682364 9.68019909 31.2682364 18.0744718 27.6447818 18.0744718 27.6447818 1.82810818 37.7858727 10.4037445 37.7858727 2.00565364 41.4093273 2.00565364"/>
  <polygon points="45.3981818 18.0748536 49.0407273 18.0748536 49.0407273 2.00603545 45.3981818 2.00603545"/>
  <path d="M59.2763182,8.66189 C61.4965909,9.65652636 62.7852273,11.2639809 62.7852273,13.4804355 C62.7852273,16.3746173 60.6585,18.2569809 57.6707727,18.2569809 C55.0915909,18.2569809 53.0106818,17.1974355 51.8995909,15.10889 L54.6353182,12.8676173 C55.3397727,13.9767991 56.4928636,14.8607082 57.6020455,14.8607082 C58.6673182,14.8607082 59.1426818,14.4559809 59.1426818,13.7057082 C59.1426818,12.9859809 58.6215,12.5297082 57.2622273,11.9245264 L56.3592273,11.5102536 C53.9385,10.4277991 52.6002273,8.63516273 52.6002273,6.46261727 C52.6002273,3.65625364 54.9312273,1.82734455 57.4875,1.82734455 C59.2763182,1.82734455 60.6355909,2.25498091 61.9929545,3.83952636 L59.5493182,6.42061727 C58.7341364,5.42598091 58.2339545,5.21979909 57.4875,5.21979909 C56.8765909,5.21979909 56.2446818,5.60734455 56.2446818,6.32898091 C56.2446818,7.16707182 56.9472273,7.61761727 58.4172273,8.27434455 L59.2763182,8.66189 Z"/>
  <polygon points="72.0006 5.58214455 72.0006 18.0752355 68.3103273 18.0752355 68.3103273 5.58214455 64.4883273 5.58214455 64.4883273 2.00641727 75.8264182 2.00641727 75.8264182 5.58214455"/>
  <path d="M84.0414273,8.50534455 C85.0131545,8.50534455 85.7157,7.80089 85.7157,6.91698091 C85.7157,6.03879909 85.0131545,5.30761727 84.0414273,5.30761727 L81.9815182,5.30761727 L81.9815182,8.50534455 L84.0414273,8.50534455 Z M81.9815182,18.0756173 L78.3828818,18.0756173 L78.3828818,2.00679909 L84.4480636,2.00679909 C87.0730636,2.00679909 89.2246091,4.16025364 89.2246091,6.78334455 C89.2246091,8.77834455 87.9989727,10.5404355 86.1471545,11.2391627 L91.3513364,18.0756173 L87.0272455,18.0756173 L82.0483364,11.55989 L81.9815182,11.55989 L81.9815182,18.0756173 Z"/>
  <polygon points="101.142109 2.00622636 105.420382 2.00622636 99.4640182 11.3283173 99.4640182 18.0750445 95.8462909 18.0750445 95.8462909 11.3283173 89.8918364 2.00622636 94.1262 2.00622636 97.6370182 7.64377182"/>
  <polygon points="148.172182 2.00813545 152.200364 2.00813545 144.619364 18.2583173 137.038364 2.00813545 141.066545 2.00813545 144.619364 10.0396809"/>
  <polygon points="158.193 8.30030818 163.17 8.30030818 163.17 11.7843991 158.193 11.7843991 158.193 14.4991264 164.529273 14.4991264 164.529273 18.0748536 154.573364 18.0748536 154.573364 2.00794455 164.529273 2.00794455 164.529273 5.58558091 158.193 5.58558091"/>
  <polygon points="168.517745 2.00813545 172.160291 2.00813545 172.160291 14.4764082 178.383927 14.4764082 178.383927 18.0750445 168.517745 18.0750445"/>
  <path d="M192.7506,10.0396809 C192.7506,7.45668091 190.782327,5.31086273 188.176418,5.31086273 C185.574327,5.31086273 183.606055,7.45668091 183.606055,10.0396809 C183.606055,12.6207718 185.574327,14.7723173 188.176418,14.7723173 C190.782327,14.7723173 192.7506,12.6207718 192.7506,10.0396809 M179.965418,10.0396809 C179.965418,5.51322636 183.653782,1.82677182 188.176418,1.82677182 C192.704782,1.82677182 196.393145,5.51322636 196.393145,10.0396809 C196.393145,14.5680445 192.704782,18.2583173 188.176418,18.2583173 C183.653782,18.2583173 179.965418,14.5680445 179.965418,10.0396809"/>
  <path d="M206.809527,14.7732718 C208.527709,14.7732718 209.9748,13.8397264 210.791891,12.5281809 L213.531436,14.7732718 C212.0328,16.8751809 209.564345,18.2573627 206.809527,18.2573627 C202.283073,18.2573627 198.590891,14.5689991 198.590891,10.0406355 C198.590891,5.51227182 202.283073,1.82772636 206.809527,1.82772636 C209.564345,1.82772636 212.0328,3.20990818 213.531436,5.31181727 L210.791891,7.54927182 C209.9748,6.23772636 208.527709,5.31181727 206.809527,5.31181727 C204.207436,5.31181727 202.237255,7.45763545 202.237255,10.0406355 C202.237255,12.6198173 204.207436,14.7732718 206.809527,14.7732718"/>
  <polygon points="216.427909 18.0748536 220.072364 18.0748536 220.072364 2.00794455 216.427909 2.00794455"/>
  <polygon points="230.570645 5.58577182 230.570645 18.0750445 226.878464 18.0750445 226.878464 5.58577182 223.054555 5.58577182 223.054555 2.00813545 234.392645 2.00813545 234.392645 5.58577182"/>
  <polygon points="247.886673 2.00813545 252.163036 2.00813545 246.2124 11.3321355 246.2124 18.0750445 242.592764 18.0750445 242.592764 11.3321355 236.640218 2.00813545 240.868855 2.00813545 244.379673 7.63995364"/>
</svg>
