<svg viewBox="0 0 723 640">
  <path d="M723,219.6325 C723,247.246354 700.614354,269.632 673.0005,269.632 C645.386646,269.632 623.001,247.246354 623.001,219.6325 C623.001,192.018646 645.386646,169.633 673.0005,169.633 C700.614354,169.633 723,192.018646 723,219.6325" transform="translate(673.000500, 219.632500) scale(-1, 1) translate(-673.000500, -219.632500) "></path>
  <path d="M140,569.633565 C140,608.293863 108.659734,639.634129 69.9994353,639.634129 C31.3402661,639.634129 0,608.293863 0,569.633565 C0,530.973266 31.3402661,499.633 69.9994353,499.633 C108.659734,499.633 140,530.973266 140,569.633565" transform="translate(70.000000, 569.633565) scale(-1, 1) translate(-70.000000, -569.633565) "></path>
  <polygon transform="translate(145.000000, 569.633000) scale(-1, 1) translate(-145.000000, -569.633000)" points="0 575.133 0 564.133 290 564.133 290 575.133"></polygon>
  <polygon transform="translate(248.000000, 394.632000) scale(-1, 1) translate(-248.000000, -394.632000)" points="246 224.632 250 224.632 250 564.632 246 564.632"></polygon>
  <polygon transform="translate(473.000000, 219.633000) scale(-1, 1) translate(-473.000000, -219.633000)" points="723 214.133 723 225.133 223 225.133 223 214.133"></polygon>
  <polygon transform="translate(347.000000, 107.000000) scale(-1, 1) translate(-347.000000, -107.000000)" points="328 0 336 0 336 214 328 214"></polygon>
</svg>
